<?xml version="1.0" encoding="UTF-8"?>
<svg id="Layer_2" data-name="Layer 2" xmlns="http://www.w3.org/2000/svg" viewBox="0 0 89.81 113.39">
  <defs>
    <style>
      .cls-1 {
        fill: #f2ec00;
        stroke-width: 0px;
      }
    </style>
  </defs>
  <g id="Layer_1-2" data-name="Layer 1">
    <g>
      <path class="cls-1" d="m77.52,55.97s-12.55-7.77-14.06-8.74c-.41-.28-.78-.54-.78-1.16,0-.7,1.7-1.71,1.7-4.06v-3.24c0-1.77-1.67-3.83-4.38-3.83H25.94c-2.4,0-4.24,2.11-4.24,4.15v3.49c0,1.64,1.65,2.27,1.65,3.21s-.82,1.32-.82,1.32l-13.78,8.3c.39,1.97,2.14,4.28,3.18,5.43,0,0-2.4,3.7-2.4,10.3,0,15.92,14.6,30.89,21.77,33.44h23.34c8.14-2.74,21.95-18.5,21.95-33.57,0-5.92-2.2-9.91-2.2-9.91,0,0,2.36-3.14,3.11-5.13Zm-23.5,46h-22.13c-11.9-6.74-19.72-20.86-19.72-30.81,0-4.52,1.88-8.67,1.88-8.67,1.74,1.17,3.72,1.78,3.72,1.78,0,0-2.02,4.17-2.02,8.26,0,10.58,9.44,23.83,18.21,27.37h19.49c10.05-4.77,17.89-17.32,17.89-27.46,0-4.82-1.61-7.46-1.61-7.46,1.7-1.03,2.55-1.65,2.55-1.65,1.29,3,1.71,6.03,1.71,7.79,0,7.81-6.08,23.3-19.98,30.85Zm-22.21-4.98c-11.82-9.97-16.91-22.48-11.9-30.33-.56,10.57,3.77,21.2,11.9,30.33Zm11.48-46.94l4.86,9.82c-2.38-.52-9.02-.54-9.02-.54.79-1.09,4.16-9.27,4.16-9.27Zm-11.67,6.29c-1.45,0-3.5-1.61-3.5-4.52,0-4.13,6.8-6.21,13.06-4.91-1.23,2.07-6.06,9.43-9.56,9.43Zm13.78-9.46c2.43-.7,13.07-.7,13.07,4.89,0,3.11-1.95,4.57-3.37,4.57-3.25,0-8.31-6.96-9.7-9.46Zm15.55,21.16c3.25.47,5.37,0,6.74-.7,4.06,7.74-2.22,22.74-14.44,30.57,4.77-3.82,12.56-19.45,7.7-29.87Zm2.92-4.29c-4.64,0-5.57-1.26-10.47-2.55-1.21-.32-1.78-.48-1.78-.48l-2.76-5.12c.19.2,3.19,3.38,6.29,3.38s5.91-3.2,5.91-7.13-3.46-7.89-11.75-7.89c-5.05,0-5.98.7-5.98.7,0,0-2.2-.68-6.16-.68s-11.5,1.46-11.5,7.89c0,5.62,4.32,7.06,5.9,7.06,2.51,0,4.79-1.6,6.81-3.96l-2.33,4.66s-3.75.58-5.07.93c-1.32.34-6.72,1.62-9.34,1.62s-7.46-1.46-9.68-5.58l12.42-7.55s1.67-1.23,1.67-3.14-1.76-2.42-1.76-3.84v-2.7c0-1.1.35-1.76,1.48-1.76h34.4c1.22,0,1.33.68,1.38.8h-30.6s-.76.02-.76.77.35.87.72.87h30.65v2.28c0,1.36-1.48,1.49-1.48,3.65,0,2.64,1.13,3.02,13.99,10.96,0,0-3.25,6.84-10.19,6.84Z"/>
      <path class="cls-1" d="m32.72,9.45c-3.78,0-6.86,3.64-8.01,4.92-.27-.42-.54-.7-.86-.83.23-1.58-1.61-3.5-4.18-3.5-.44,0-1.16.1-1.16,1.01,0,1.64,2.8.57,3.14,2.02,0,0-3.37.37-4.46,3.14-.57-.41-.47-.89-.47-1.42s.75-2.27-.66-2.27-2.52,4.35.72,5.95c-.03.62.41,1.06.41,1.06-2.9,1.1-7.39,3.33-7.39,7.99s3.58,6.51,6.29,6.51,5-1.12,6.7-3.93c.91.41,1.13.47,2.67.47s2.27-.4,2.96-.4,1.92.66,2.4.85c-.21-.58-.21-.84-.21-1.54,0-1.95,2.12-2.55,2.12-6.57,5.04-.78,6.64-5.22,6.64-7.36s-1.82-6.1-6.64-6.1ZM15.87,31.97c-2.37,0-4.12-1.98-4.12-4.31,0-4.69,7.26-6.54,9.96-7.75,1.58,8.78-1.79,12.05-5.84,12.05Zm7.98-13.56s4.94-6.95,9-6.95c3.24,0,4.49,2.45,4.49,4.25,0,3.78-4.75,8.1-13.49,2.7Z"/>
      <g>
        <path class="cls-1" d="m12.48,42.33c-.3,0-.6-.14-.79-.4-.33-.44-.23-1.05.2-1.38.3-.22.47-.33.47-.33.47-.28,1.07-.14,1.36.32.28.46.14,1.07-.32,1.35-.02.01-.14.09-.33.23-.18.13-.38.2-.59.2Z"/>
        <path class="cls-1" d="m42.96,113.39c-.22,0-.45,0-.67,0-.54-.01-.98-.46-.97-1,.01-.54.46-.97,1-.97.23,0,.47,0,.7,0h.26s0,0,0,0c.54,0,.98.44.99.98,0,.54-.44.99-.98.99h-.27s-.04,0-.06,0Zm3.29-.11c-.51,0-.95-.4-.98-.92-.04-.54.38-1.01.92-1.05.32-.02.64-.05.96-.07.54-.06,1.02.35,1.07.9.05.54-.35,1.02-.9,1.07-.33.03-.67.05-1,.08-.02,0-.04,0-.07,0Zm-6.9-.06s-.06,0-.09,0c-.34-.03-.67-.07-1.01-.11-.54-.06-.93-.55-.86-1.09.06-.54.56-.92,1.09-.86.32.04.64.07.96.1.54.05.94.53.89,1.07-.05.51-.48.89-.98.89Zm10.82-.35c-.48,0-.9-.35-.97-.84-.08-.54.29-1.04.83-1.12.32-.05.64-.1.95-.15.54-.09,1.05.27,1.14.81.09.54-.27,1.04-.81,1.14-.33.06-.66.11-.99.16-.05,0-.1.01-.15.01Zm-14.72-.2c-.06,0-.12,0-.19-.02-.33-.06-.66-.13-.99-.2-.53-.11-.87-.64-.76-1.17s.64-.87,1.17-.76c.31.07.63.13.94.19.53.1.89.62.78,1.15-.09.47-.5.8-.97.8Zm18.6-.54c-.45,0-.85-.31-.96-.76-.12-.53.21-1.06.74-1.18.31-.07.63-.15.94-.23.53-.14,1.06.19,1.2.71.13.53-.19,1.06-.71,1.2-.33.08-.65.16-.98.24-.08.02-.15.03-.22.03Zm-22.43-.38c-.09,0-.18-.01-.27-.04-.32-.09-.65-.19-.97-.29-.52-.16-.81-.72-.64-1.24.16-.52.72-.81,1.24-.64.31.1.61.19.92.28.52.15.82.7.67,1.22-.12.43-.52.71-.95.71Zm26.24-.67c-.42,0-.8-.27-.94-.68-.17-.52.12-1.07.63-1.24.31-.1.61-.2.92-.31.51-.18,1.08.1,1.25.61.18.51-.1,1.08-.61,1.25-.32.11-.63.22-.95.32-.1.03-.2.05-.3.05Zm-29.97-.6c-.12,0-.24-.02-.36-.07-.31-.12-.63-.25-.94-.38-.5-.21-.74-.79-.53-1.29.21-.5.79-.74,1.29-.53.3.12.6.24.9.36.51.2.76.77.56,1.28-.15.39-.52.63-.92.63Zm33.67-.77c-.39,0-.75-.23-.91-.6-.21-.5.03-1.08.53-1.29.3-.12.59-.25.88-.38.5-.22,1.08,0,1.3.5.22.5,0,1.08-.5,1.3-.31.14-.61.27-.92.4-.12.05-.25.08-.38.08Zm-37.28-.82c-.15,0-.3-.03-.44-.1-.3-.15-.6-.3-.9-.46-.48-.25-.67-.85-.42-1.33.25-.48.85-.67,1.33-.42.29.15.57.3.86.44.49.24.69.83.44,1.32-.17.35-.52.55-.88.55Zm40.85-.86c-.35,0-.7-.19-.87-.53-.25-.48-.07-1.08.41-1.33.28-.15.57-.3.85-.46.48-.26,1.08-.09,1.34.38.26.48.09,1.08-.38,1.34-.29.16-.59.32-.88.48-.15.08-.3.11-.46.11Zm-44.3-1.04c-.17,0-.35-.05-.51-.14-.29-.18-.57-.35-.86-.54-.46-.29-.59-.9-.3-1.36.29-.46.9-.59,1.36-.3.27.17.54.34.82.51.46.28.61.89.33,1.35-.19.3-.51.47-.84.47Zm47.7-.95c-.32,0-.64-.16-.83-.45-.3-.46-.17-1.07.29-1.36.27-.17.54-.35.8-.53.45-.31,1.06-.19,1.37.26.31.45.19,1.06-.26,1.37-.28.19-.56.37-.84.56-.17.11-.35.16-.54.16Zm-50.97-1.25c-.2,0-.41-.06-.58-.19-.27-.2-.54-.4-.81-.61-.43-.33-.51-.95-.18-1.38.33-.43.95-.51,1.38-.18.25.2.51.39.77.58.44.32.53.94.21,1.38-.19.26-.49.4-.79.4Zm54.18-1.04c-.29,0-.58-.13-.77-.38-.34-.43-.26-1.05.16-1.38.25-.2.5-.4.75-.61.42-.35,1.04-.29,1.39.13.35.42.29,1.04-.13,1.39-.26.21-.52.42-.78.63-.18.14-.4.21-.61.21Zm-57.24-1.44c-.23,0-.47-.08-.65-.25-.25-.22-.5-.45-.75-.68-.4-.37-.42-.99-.05-1.39.37-.4.99-.42,1.39-.05.24.22.47.43.71.65.41.36.44.98.08,1.39-.19.22-.47.33-.74.33Zm60.22-1.14c-.26,0-.52-.1-.71-.31-.37-.39-.36-1.02.03-1.39.23-.22.46-.44.69-.67.39-.39,1.01-.38,1.39,0s.38,1.01,0,1.39c-.24.24-.48.47-.72.7-.19.18-.44.27-.68.27Zm-63.05-1.61c-.26,0-.52-.1-.72-.31-.23-.24-.46-.49-.68-.74-.36-.41-.33-1.03.08-1.39.4-.36,1.03-.33,1.39.08.21.24.43.48.65.71.37.4.35,1.02-.04,1.39-.19.18-.43.27-.68.27Zm65.78-1.24c-.23,0-.46-.08-.65-.24-.41-.36-.45-.98-.1-1.39.21-.24.42-.49.62-.73.35-.42.97-.48,1.39-.13.42.35.48.97.13,1.39-.22.26-.43.51-.65.77-.19.22-.47.34-.74.34Zm-68.34-1.76c-.29,0-.58-.13-.78-.38-.21-.27-.41-.53-.61-.8-.32-.44-.23-1.05.21-1.38.44-.32,1.05-.23,1.38.21.19.26.39.51.58.77.33.43.26,1.05-.17,1.38-.18.14-.39.21-.6.21Zm70.79-1.33c-.2,0-.4-.06-.57-.19-.44-.32-.54-.93-.22-1.38.19-.26.37-.52.55-.79.31-.45.92-.56,1.37-.26.45.31.56.92.26,1.37-.19.28-.38.55-.58.83-.19.27-.49.41-.8.41Zm-73.06-1.89c-.33,0-.65-.16-.83-.46-.18-.29-.36-.57-.53-.86-.28-.47-.13-1.07.34-1.35.47-.28,1.07-.13,1.35.34.16.28.33.55.5.82.29.46.15,1.07-.31,1.36-.16.1-.35.15-.53.15Zm75.21-1.41c-.17,0-.34-.04-.5-.14-.47-.28-.62-.88-.35-1.35.16-.28.32-.55.48-.84.26-.48.86-.65,1.34-.38.48.27.64.87.38,1.34-.16.3-.33.59-.5.87-.18.31-.51.48-.85.48Zm-77.15-2.03c-.36,0-.71-.2-.88-.54-.15-.3-.3-.61-.44-.91-.23-.49-.02-1.08.48-1.31.49-.23,1.08-.02,1.31.48.14.29.27.58.42.86.24.49.05,1.08-.44,1.32-.14.07-.29.1-.44.1Zm79-1.46c-.14,0-.29-.03-.42-.1-.49-.23-.7-.82-.46-1.31.14-.29.27-.58.41-.88.22-.5.81-.72,1.3-.49.5.22.72.81.49,1.3-.14.31-.28.61-.42.91-.17.35-.52.56-.89.56Zm-80.58-2.16c-.4,0-.77-.24-.92-.64-.12-.32-.23-.64-.34-.96-.18-.51.1-1.08.61-1.25.51-.18,1.07.1,1.25.61.1.3.21.61.32.91.19.51-.07,1.08-.58,1.27-.11.04-.23.06-.35.06Zm82.12-1.46c-.12,0-.23-.02-.35-.06-.51-.19-.77-.76-.57-1.27.11-.3.22-.6.33-.91.18-.51.75-.78,1.26-.6.51.18.78.74.6,1.26-.11.32-.23.63-.35.95-.15.39-.52.64-.92.64Zm-83.3-2.3c-.44,0-.84-.3-.95-.74-.08-.33-.16-.66-.24-.99-.12-.53.21-1.06.74-1.18.53-.12,1.06.21,1.18.74.07.31.15.62.22.93.14.53-.18,1.06-.71,1.2-.08.02-.17.03-.25.03Zm84.54-1.44c-.09,0-.18-.01-.27-.04-.52-.15-.82-.7-.67-1.22.09-.31.18-.62.26-.93.14-.53.68-.84,1.21-.7.53.14.84.68.7,1.21-.09.33-.18.65-.27.97-.12.43-.52.71-.95.71ZM1.34,78.64c-.48,0-.91-.36-.97-.85-.05-.33-.09-.67-.13-1-.06-.54.33-1.03.87-1.09.54-.06,1.03.33,1.09.87.04.32.08.64.12.95.08.54-.3,1.04-.84,1.11-.05,0-.09,0-.14,0Zm86.26-1.4c-.07,0-.13,0-.2-.02-.53-.11-.87-.63-.76-1.17.07-.31.13-.63.19-.95.1-.53.62-.89,1.15-.78.53.1.89.62.78,1.15-.06.33-.13.66-.2.99-.1.46-.51.78-.96.78ZM1,74.71c-.53,0-.97-.42-.98-.95-.01-.34-.02-.67-.02-1.01,0-.54.44-.99.98-.99h0c.54,0,.98.44.99.98,0,.32,0,.64.02.96.02.54-.41,1-.95,1.02-.01,0-.02,0-.03,0Zm87.27-1.36s-.09,0-.13,0c-.54-.07-.92-.57-.84-1.11.04-.32.08-.64.12-.96.07-.54.56-.93,1.1-.86.54.07.93.56.86,1.1-.04.33-.08.66-.13.99-.07.49-.49.85-.98.85ZM1.04,70.76s-.03,0-.04,0c-.54-.02-.97-.48-.94-1.02.01-.34.03-.67.05-1,.03-.54.49-.96,1.04-.93.54.03.96.49.93,1.04-.02.32-.03.64-.05.97-.02.53-.46.95-.98.95Zm87.64-1.34s-.05,0-.07,0c-.54-.04-.95-.51-.91-1.05.02-.32.04-.65.06-.97.03-.54.5-.95,1.04-.93.54.03.96.5.93,1.04-.02.33-.04.67-.06,1-.04.52-.47.91-.98.91ZM1.32,66.83s-.07,0-.1,0c-.54-.06-.94-.54-.88-1.08.03-.34.07-.67.11-1,.06-.54.56-.92,1.1-.86.54.06.93.55.86,1.1-.04.32-.07.64-.11.97-.05.51-.48.88-.98.88Zm87.51-1.35c-.54,0-.98-.44-.99-.98,0-.32,0-.65-.01-.97-.01-.54.42-1,.96-1.01.52-.01.99.42,1.01.96,0,.33.01.67.01,1.01,0,.54-.44.99-.98.99h0ZM1.85,62.92c-.06,0-.11,0-.17-.01-.54-.09-.89-.6-.8-1.14.06-.33.12-.66.18-.99.1-.53.62-.88,1.16-.78.53.1.88.62.78,1.16-.06.31-.12.63-.18.95-.08.48-.5.82-.97.82Zm86.81-1.38c-.51,0-.94-.39-.98-.91-.03-.32-.06-.64-.09-.96-.06-.54.34-1.03.88-1.08.54-.07,1.03.34,1.08.88.03.33.06.67.09,1,.04.54-.36,1.02-.9,1.06-.03,0-.05,0-.08,0ZM2.68,59.06c-.08,0-.17-.01-.25-.03-.53-.14-.84-.67-.71-1.2.09-.33.17-.65.26-.97.15-.52.69-.83,1.22-.68.52.15.83.69.68,1.22-.09.31-.17.62-.25.93-.12.44-.51.74-.95.74Zm85.5-1.43c-.47,0-.89-.34-.97-.83-.05-.32-.11-.64-.17-.95-.1-.54.25-1.05.79-1.15.54-.1,1.05.25,1.15.79.06.33.12.66.17.99.09.54-.28,1.04-.81,1.13-.05,0-.11.01-.16.01ZM3.83,55.29c-.11,0-.22-.02-.33-.06-.51-.18-.78-.75-.6-1.26.12-.32.23-.64.35-.95.2-.51.77-.76,1.27-.57.51.2.76.77.57,1.27-.11.29-.23.6-.34.9-.14.4-.52.65-.93.65Zm83.55-1.52c-.44,0-.84-.3-.96-.75-.08-.31-.16-.63-.24-.94-.14-.53.17-1.07.69-1.21.52-.14,1.07.17,1.21.69.09.32.17.65.25.97.13.53-.19,1.06-.72,1.19-.08.02-.16.03-.24.03Zm-82.03-2.12c-.14,0-.29-.03-.43-.1-.49-.24-.7-.83-.46-1.32.15-.31.3-.61.45-.91.25-.48.84-.67,1.33-.42.48.25.67.84.42,1.33-.14.28-.29.56-.43.86-.17.35-.52.56-.89.56Zm80.92-1.67c-.41,0-.8-.26-.93-.67-.1-.31-.21-.61-.32-.91-.18-.51.08-1.08.6-1.26.51-.18,1.08.08,1.26.6.11.32.22.63.33.95.17.52-.1,1.07-.62,1.25-.1.04-.21.05-.31.05Zm-79.01-1.78c-.18,0-.37-.05-.53-.16-.46-.29-.59-.9-.3-1.36.19-.3.38-.58.56-.85.31-.45.92-.56,1.37-.25.45.31.56.92.25,1.37-.18.25-.35.52-.53.79-.19.29-.51.45-.83.45Zm77.61-1.91c-.38,0-.75-.23-.91-.6-.13-.3-.26-.59-.39-.89-.22-.5,0-1.08.5-1.3.5-.22,1.08,0,1.3.5.14.31.27.61.4.92.21.5-.02,1.08-.52,1.29-.13.05-.26.08-.39.08Zm-75.25-1.25c-.23,0-.46-.08-.65-.24-.41-.36-.45-.98-.1-1.39.24-.27.47-.53.69-.76.37-.4,1-.41,1.39-.04.4.37.41,1,.04,1.39-.2.22-.42.45-.63.7-.19.22-.47.34-.74.34Zm73.57-2.32c-.36,0-.7-.19-.88-.53-.15-.29-.3-.57-.45-.86-.26-.48-.08-1.08.4-1.34.48-.26,1.08-.08,1.34.4.16.29.32.59.47.89.25.48.06,1.08-.42,1.33-.14.08-.3.11-.45.11Zm-1.94-3.44c-.33,0-.66-.17-.84-.47-.17-.28-.34-.55-.51-.82-.29-.46-.16-1.07.3-1.36.46-.29,1.07-.16,1.36.3.18.28.36.56.53.85.28.46.14,1.07-.33,1.36-.16.1-.34.15-.51.15Zm-2.18-3.29c-.31,0-.61-.14-.8-.41-.19-.26-.38-.52-.57-.78-.32-.44-.23-1.05.2-1.38.03-.02.05-.04.08-.05-.11-.09-.21-.21-.28-.35-.23-.49-.02-1.08.47-1.31.28-.13.55-.27.81-.42.47-.27,1.08-.1,1.34.37.27.47.1,1.08-.37,1.34-.28.16-.56.3-.85.44.06.05.12.11.17.18.2.27.4.54.59.81.32.44.21,1.06-.23,1.37-.17.12-.37.18-.57.18Zm-8.15-.89c-.54,0-.99-.44-.99-.99s.44-.99.98-.99h0c.32,0,.63,0,.94-.02.55-.01,1,.4,1.02.95.02.54-.4,1-.95,1.02-.34.01-.68.02-1.02.02Zm-2.96-.16s-.07,0-.11,0c-.34-.04-.67-.08-1.01-.13-.54-.08-.92-.57-.84-1.11.08-.54.57-.92,1.11-.84.32.04.63.08.95.12.54.06.93.54.87,1.09-.05.51-.48.88-.98.88Zm6.88-.18c-.47,0-.88-.33-.97-.81-.1-.54.25-1.05.79-1.15.31-.06.61-.12.91-.2.14-.04.29-.04.43-.01-.03-.03-.06-.06-.09-.1-.21-.25-.41-.5-.62-.74-.35-.41-.3-1.04.11-1.39s1.04-.3,1.39.11c.22.25.43.51.64.77.35.42.28,1.04-.14,1.39-.24.19-.54.26-.82.21.14.13.24.3.29.49.13.53-.19,1.06-.72,1.19-.34.08-.68.15-1.02.22-.06.01-.12.02-.18.02Zm-10.77-.48c-.07,0-.15,0-.22-.02-.33-.07-.66-.15-.98-.24-.53-.13-.85-.67-.71-1.2.13-.53.67-.84,1.2-.71.31.08.62.15.94.23.53.12.86.65.74,1.18-.1.46-.51.77-.96.77Zm-3.8-1.07c-.1,0-.21-.02-.31-.05-.32-.11-.64-.22-.95-.33-.51-.18-.78-.75-.59-1.26.18-.51.75-.78,1.26-.59.3.11.61.21.91.32.52.17.8.73.62,1.25-.14.41-.52.67-.94.67Zm-3.68-1.42c-.13,0-.27-.03-.4-.08-.31-.14-.62-.28-.92-.42-.49-.23-.71-.82-.48-1.31.23-.49.82-.71,1.31-.48.29.14.58.27.88.4.5.22.72.8.51,1.3-.16.37-.52.59-.9.59Zm25.26-.42c-.26,0-.52-.1-.71-.3-.38-.39-.36-1.02.03-1.39.22-.21.42-.42.62-.65.36-.41.98-.45,1.39-.09.41.36.45.98.09,1.39-.24.27-.48.53-.74.77-.19.18-.44.27-.68.27Zm-28.8-1.33c-.16,0-.33-.04-.48-.13-.3-.17-.59-.33-.88-.51-.47-.28-.62-.88-.34-1.35.28-.47.88-.62,1.35-.34.27.16.55.32.83.48.47.27.64.87.38,1.34-.18.32-.52.5-.86.5Zm21.01-.15c-.26,0-.52-.1-.72-.31-.22-.24-.45-.47-.67-.7-.38-.39-.37-1.01.02-1.39.39-.38,1.01-.37,1.39.02.23.24.46.48.69.73.37.4.35,1.02-.04,1.39-.19.18-.43.27-.68.27Zm10.13-1.67c-.15,0-.31-.04-.45-.11-.48-.25-.67-.85-.42-1.33.14-.27.27-.54.39-.83.22-.5.8-.73,1.29-.52.5.22.73.79.52,1.29-.14.33-.29.65-.45.96-.18.34-.52.53-.88.53Zm-34.47-.29c-.2,0-.4-.06-.57-.18-.28-.2-.55-.4-.82-.61-.43-.33-.51-.95-.18-1.38.33-.43.95-.51,1.38-.18.25.19.5.38.77.57.44.32.54.93.23,1.38-.19.27-.49.41-.8.41Zm21.55-.82c-.24,0-.48-.09-.67-.26-.24-.22-.48-.44-.71-.65-.4-.36-.44-.99-.07-1.39s.99-.44,1.39-.07c.25.22.5.45.74.68.4.37.42.99.05,1.39-.19.21-.46.31-.72.31Zm-24.57-1.71c-.25,0-.5-.09-.69-.29-.25-.25-.49-.5-.72-.75-.37-.4-.33-1.03.07-1.39.4-.37,1.03-.33,1.39.07.2.23.42.45.65.67.39.38.39,1.01,0,1.39-.19.19-.45.29-.7.29Zm21.6-.89c-.22,0-.44-.07-.62-.22-.25-.21-.51-.41-.76-.61-.43-.34-.5-.96-.16-1.38.34-.43.96-.5,1.38-.16.26.21.52.41.78.63.42.34.49.96.14,1.39-.19.24-.48.36-.76.36Zm17.14-.02s-.1,0-.15-.01c-.54-.08-.91-.58-.83-1.12.04-.3.08-.6.1-.9.04-.54.5-.95,1.05-.92.54.04.95.5.92,1.05-.02.36-.06.71-.11,1.06-.07.49-.49.84-.97.84Zm-41.16-2.19c-.35,0-.69-.19-.87-.52-.18-.34-.34-.67-.47-1-.2-.51.05-1.08.56-1.28.51-.2,1.08.05,1.28.56.1.26.23.52.37.78.26.48.08,1.08-.4,1.34-.15.08-.31.12-.47.12Zm20.87-.17c-.2,0-.39-.06-.57-.18-.27-.19-.53-.37-.8-.55-.45-.31-.57-.92-.26-1.37.31-.45.92-.57,1.37-.26.28.19.55.38.83.57.45.31.55.93.24,1.37-.19.27-.5.42-.81.42Zm20.25-1.56c-.48,0-.9-.35-.97-.84-.05-.3-.1-.61-.17-.91-.12-.53.22-1.06.75-1.17.53-.12,1.06.22,1.17.75.07.34.14.69.19,1.03.08.54-.29,1.04-.82,1.12-.05,0-.1.01-.15.01Zm-23.56-.59c-.17,0-.35-.04-.5-.14-.28-.17-.56-.33-.84-.49-.47-.27-.64-.87-.37-1.34.27-.47.87-.64,1.34-.37.29.16.58.33.87.51.47.28.62.88.34,1.35-.18.31-.51.48-.85.48Zm-18.31-1.46c-.07,0-.14,0-.2-.02-.53-.11-.87-.64-.76-1.17.04-.19.09-.37.15-.55.07-.22.15-.42.25-.61.24-.49.83-.69,1.32-.45.49.24.69.83.45,1.32-.06.11-.1.24-.15.36-.04.11-.07.22-.09.34-.1.46-.51.78-.96.78Zm14.84-.42c-.14,0-.29-.03-.43-.1-.29-.14-.58-.28-.87-.41-.5-.23-.71-.81-.49-1.31.23-.49.81-.71,1.31-.49.3.14.61.28.91.43.49.24.69.83.46,1.32-.17.35-.52.56-.89.56Zm25.98-1.33c-.39,0-.77-.24-.92-.63-.11-.29-.24-.58-.36-.87-.22-.5,0-1.08.5-1.3.5-.22,1.08,0,1.3.5.14.32.27.63.4.95.2.51-.05,1.08-.56,1.28-.12.05-.24.07-.36.07Zm-29.62-.21c-.11,0-.22-.02-.33-.06-.31-.11-.61-.21-.9-.3-.52-.16-.81-.72-.64-1.24.16-.52.72-.81,1.24-.64.32.1.64.21.97.32.51.18.78.74.6,1.26-.14.4-.52.66-.93.66Zm-8.69-.85c-.4,0-.78-.25-.93-.65-.19-.51.08-1.08.59-1.26.34-.12.72-.22,1.11-.3.53-.1,1.05.25,1.15.79.1.54-.25,1.05-.79,1.15-.29.05-.55.12-.8.21-.11.04-.22.06-.33.06Zm4.88-.18c-.06,0-.11,0-.17-.01-.31-.05-.62-.1-.92-.13-.54-.06-.93-.55-.87-1.09.06-.54.56-.93,1.09-.87.34.04.68.09,1.04.15.54.09.9.6.81,1.14-.08.48-.5.82-.97.82Zm31.68-2.31c-.33,0-.66-.17-.85-.48-.16-.27-.33-.54-.5-.81-.16-.24-.19-.53-.13-.78-.31-.08-.57-.31-.68-.64-.06-.18-.07-.36-.03-.53-.31.02-.63-.1-.84-.36-.2-.25-.4-.49-.61-.73-.36-.41-.31-1.03.1-1.39.41-.36,1.03-.31,1.39.1.22.26.44.52.66.78.19.23.25.52.2.8.21-.07.41-.15.61-.24.5-.21,1.08.02,1.29.53.2.47,0,1-.42,1.24.04.05.09.1.12.15.19.29.37.58.54.87.28.47.13,1.07-.34,1.35-.16.09-.33.14-.51.14Zm-5.09-1.3c-.51,0-.95-.4-.98-.92-.04-.54.37-1.01.92-1.05.31-.02.62-.05.92-.09.54-.07,1.03.31,1.1.85.07.54-.31,1.03-.85,1.1-.35.04-.69.08-1.04.1-.02,0-.05,0-.07,0Zm-2.96-.04s-.06,0-.09,0c-.35-.03-.69-.07-1.03-.12-.54-.08-.91-.58-.84-1.11.08-.54.58-.91,1.11-.84.31.04.62.08.93.11.54.05.94.53.89,1.07-.05.51-.48.9-.98.9Zm-3.87-.76c-.1,0-.2-.01-.29-.05-.34-.11-.67-.22-.99-.34-.51-.19-.77-.76-.57-1.27.19-.51.76-.76,1.27-.57.28.11.58.21.88.3.52.16.81.71.65,1.23-.13.42-.52.69-.94.69Zm-3.57-1.66c-.19,0-.39-.06-.56-.17-.31-.21-.61-.44-.87-.68-.41-.36-.45-.98-.09-1.39.36-.41.98-.45,1.39-.09.21.18.44.36.69.53.45.31.56.92.26,1.37-.19.28-.5.43-.81.43Zm17.73-.12c-.29,0-.58-.13-.78-.38-.34-.43-.26-1.05.17-1.38.23-.18.46-.38.67-.58.39-.38,1.02-.36,1.39.03.38.39.36,1.02-.03,1.39-.26.25-.54.49-.82.71-.18.14-.39.21-.61.21Zm-7.19-2.26c-.24,0-.49-.09-.68-.27-.23-.22-.47-.43-.71-.64-.41-.36-.45-.98-.09-1.39.36-.41.98-.45,1.39-.09.25.22.51.45.76.69.4.37.42,1,.04,1.39-.19.21-.46.31-.72.31Zm-12.86-.69c-.47,0-.89-.34-.97-.82-.03-.21-.05-.42-.05-.63,0-.23.02-.46.06-.68.1-.54.61-.89,1.14-.8.54.1.89.61.8,1.14-.02.11-.03.23-.03.34,0,.1,0,.21.03.31.09.54-.27,1.05-.81,1.14-.06,0-.11.01-.16.01Zm22.59-.04c-.16,0-.33-.04-.48-.12-.48-.26-.65-.86-.39-1.34.14-.26.27-.52.39-.8.22-.5.8-.73,1.3-.51.5.22.73.8.51,1.3-.15.34-.31.66-.48.97-.18.32-.52.51-.86.51Zm-12.81-1.76c-.19,0-.38-.05-.55-.17-.26-.18-.53-.35-.79-.51-.47-.28-.61-.89-.33-1.35s.89-.61,1.35-.33c.29.18.58.36.87.56.45.31.57.92.26,1.37-.19.28-.5.43-.82.43Zm-8.23-1.63c-.31,0-.61-.14-.81-.42-.31-.44-.21-1.06.23-1.37.34-.24.72-.44,1.13-.57.51-.17,1.07.1,1.25.62.17.52-.1,1.08-.62,1.25-.23.08-.44.18-.62.31-.17.12-.37.18-.57.18Zm4.74-.19c-.11,0-.22-.02-.33-.06-.29-.1-.57-.19-.85-.25-.53-.13-.86-.66-.73-1.19.13-.53.66-.85,1.19-.73.34.08.69.18,1.04.31.51.18.78.74.6,1.26-.14.41-.52.66-.93.66Z"/>
        <path class="cls-1" d="m88.68,2.46s-.1,0-.15-.01c-.54-.08-.91-.58-.83-1.12.02-.15.04-.3.06-.46.06-.54.55-.92,1.1-.86.54.06.93.55.86,1.1-.02.18-.04.35-.07.52-.07.49-.49.84-.97.84Z"/>
      </g>
    </g>
  </g>
</svg>